<svg width="293" height="68" viewBox="0 0 293 68" fill="none" xmlns="http://www.w3.org/2000/svg">
<path d="M13.6001 2.304C17.1521 2.304 20.2561 3.008 22.9121 4.416C25.5681 5.824 27.6161 7.808 29.0561 10.368C30.5281 12.896 31.2641 15.824 31.2641 19.152C31.2641 22.448 30.5281 25.376 29.0561 27.936C27.6161 30.496 25.5521 32.48 22.8641 33.888C20.2081 35.296 17.1201 36 13.6001 36H0.976074V2.304H13.6001ZM13.0721 28.896C16.1761 28.896 18.5921 28.048 20.3201 26.352C22.0481 24.656 22.9121 22.256 22.9121 19.152C22.9121 16.048 22.0481 13.632 20.3201 11.904C18.5921 10.176 16.1761 9.312 13.0721 9.312H9.18407V28.896H13.0721Z" fill="black"/>
<path d="M95.9534 12.96C95.3454 11.84 94.4655 10.992 93.3135 10.416C92.1935 9.808 90.8655 9.504 89.3295 9.504C86.6735 9.504 84.5455 10.384 82.9454 12.144C81.3455 13.872 80.5454 16.192 80.5454 19.104C80.5454 22.208 81.3775 24.64 83.0415 26.4C84.7375 28.128 87.0574 28.992 90.0014 28.992C92.0174 28.992 93.7135 28.48 95.0895 27.456C96.4975 26.432 97.5214 24.96 98.1614 23.04H87.7455V16.992H105.601V24.624C104.993 26.672 103.953 28.576 102.481 30.336C101.041 32.096 99.2014 33.52 96.9614 34.608C94.7214 35.696 92.1934 36.24 89.3774 36.24C86.0494 36.24 83.0734 35.52 80.4494 34.08C77.8574 32.608 75.8254 30.576 74.3534 27.984C72.9134 25.392 72.1935 22.432 72.1935 19.104C72.1935 15.776 72.9134 12.816 74.3534 10.224C75.8254 7.6 77.8574 5.568 80.4494 4.128C83.0414 2.656 86.0015 1.92 89.3295 1.92C93.3615 1.92 96.7535 2.896 99.5055 4.848C102.289 6.8 104.129 9.504 105.025 12.96H95.9534Z" fill="black"/>
<path d="M140.292 36H132.084L118.356 15.216V36H110.148V2.304H118.356L132.084 23.184V2.304H140.292V36Z" fill="black"/>
<path d="M167.218 30.048H154.642L152.626 36H144.034L156.226 2.304H165.73L177.922 36H169.234L167.218 30.048ZM165.106 23.712L160.93 11.376L156.802 23.712H165.106Z" fill="black"/>
<path d="M205.872 2.304V8.88H196.944V36H188.736V8.88H179.808V2.304H205.872Z" fill="black"/>
<path d="M218.2 2.304V36H209.992V2.304H218.2Z" fill="black"/>
<path d="M240.084 36.336C236.916 36.336 234.004 35.6 231.348 34.128C228.724 32.656 226.628 30.608 225.06 27.984C223.524 25.328 222.756 22.352 222.756 19.056C222.756 15.76 223.524 12.8 225.06 10.176C226.628 7.552 228.724 5.504 231.348 4.032C234.004 2.56 236.916 1.824 240.084 1.824C243.252 1.824 246.148 2.56 248.772 4.032C251.428 5.504 253.508 7.552 255.012 10.176C256.548 12.8 257.316 15.76 257.316 19.056C257.316 22.352 256.548 25.328 255.012 27.984C253.476 30.608 251.396 32.656 248.772 34.128C246.148 35.6 243.252 36.336 240.084 36.336ZM240.084 28.848C242.772 28.848 244.916 27.952 246.516 26.16C248.148 24.368 248.964 22 248.964 19.056C248.964 16.08 248.148 13.712 246.516 11.952C244.916 10.16 242.772 9.264 240.084 9.264C237.364 9.264 235.188 10.144 233.556 11.904C231.956 13.664 231.156 16.048 231.156 19.056C231.156 22.032 231.956 24.416 233.556 26.208C235.188 27.968 237.364 28.848 240.084 28.848Z" fill="black"/>
<path d="M292.026 36H283.818L270.09 15.216V36H261.882V2.304H270.09L283.818 23.184V2.304H292.026V36Z" fill="black"/>
<path d="M102.208 67L96.8961 57.88H93.3761V67H90.4641V44.696H97.6641C99.3494 44.696 100.768 44.984 101.92 45.56C103.093 46.136 103.968 46.9147 104.544 47.896C105.12 48.8773 105.408 49.9973 105.408 51.256C105.408 52.792 104.96 54.1467 104.064 55.32C103.189 56.4933 101.867 57.272 100.096 57.656L105.696 67H102.208ZM93.3761 55.544H97.6641C99.2427 55.544 100.427 55.16 101.216 54.392C102.005 53.6027 102.4 52.5573 102.4 51.256C102.4 49.9333 102.005 48.9093 101.216 48.184C100.448 47.4587 99.2641 47.096 97.6641 47.096H93.3761V55.544Z" fill="black"/>
<path d="M125.933 57.56C125.933 58.1147 125.901 58.7013 125.837 59.32H111.821C111.927 61.048 112.514 62.4027 113.581 63.384C114.669 64.344 115.981 64.824 117.517 64.824C118.775 64.824 119.821 64.536 120.653 63.96C121.506 63.3627 122.103 62.5733 122.445 61.592H125.581C125.111 63.2773 124.173 64.6533 122.765 65.72C121.357 66.7653 119.607 67.288 117.517 67.288C115.853 67.288 114.359 66.9147 113.037 66.168C111.735 65.4213 110.711 64.3653 109.965 63C109.218 61.6133 108.845 60.0133 108.845 58.2C108.845 56.3867 109.207 54.7973 109.933 53.432C110.658 52.0667 111.671 51.0213 112.973 50.296C114.295 49.5493 115.81 49.176 117.517 49.176C119.181 49.176 120.653 49.5387 121.933 50.264C123.213 50.9893 124.194 51.992 124.877 53.272C125.581 54.5307 125.933 55.96 125.933 57.56ZM122.925 56.952C122.925 55.8427 122.679 54.8933 122.189 54.104C121.698 53.2933 121.026 52.6853 120.173 52.28C119.341 51.8533 118.413 51.64 117.389 51.64C115.917 51.64 114.658 52.1093 113.613 53.048C112.589 53.9867 112.002 55.288 111.853 56.952H122.925Z" fill="black"/>
<path d="M135.985 67.288C134.641 67.288 133.435 67.064 132.369 66.616C131.302 66.1467 130.459 65.5067 129.841 64.696C129.222 63.864 128.881 62.9147 128.817 61.848H131.825C131.91 62.7227 132.315 63.4373 133.041 63.992C133.787 64.5467 134.758 64.824 135.953 64.824C137.062 64.824 137.937 64.5787 138.577 64.088C139.217 63.5973 139.537 62.9787 139.537 62.232C139.537 61.464 139.195 60.8987 138.513 60.536C137.83 60.152 136.774 59.7787 135.345 59.416C134.043 59.0747 132.977 58.7333 132.145 58.392C131.334 58.0293 130.63 57.5067 130.033 56.824C129.457 56.12 129.169 55.2027 129.169 54.072C129.169 53.176 129.435 52.3547 129.969 51.608C130.502 50.8613 131.259 50.2747 132.241 49.848C133.222 49.4 134.342 49.176 135.601 49.176C137.542 49.176 139.11 49.6667 140.305 50.648C141.499 51.6293 142.139 52.9733 142.225 54.68H139.313C139.249 53.7627 138.875 53.0267 138.193 52.472C137.531 51.9173 136.635 51.64 135.505 51.64C134.459 51.64 133.627 51.864 133.009 52.312C132.39 52.76 132.081 53.3467 132.081 54.072C132.081 54.648 132.262 55.128 132.625 55.512C133.009 55.8747 133.478 56.1733 134.033 56.408C134.609 56.6213 135.398 56.8667 136.401 57.144C137.659 57.4853 138.683 57.8267 139.473 58.168C140.262 58.488 140.934 58.9787 141.489 59.64C142.065 60.3013 142.363 61.1653 142.385 62.232C142.385 63.192 142.118 64.056 141.585 64.824C141.051 65.592 140.294 66.2 139.313 66.648C138.353 67.0747 137.243 67.288 135.985 67.288Z" fill="black"/>
<path d="M145.407 58.2C145.407 56.3867 145.77 54.808 146.495 53.464C147.221 52.0987 148.223 51.0427 149.503 50.296C150.805 49.5493 152.287 49.176 153.951 49.176C156.106 49.176 157.877 49.6987 159.263 50.744C160.671 51.7893 161.599 53.24 162.047 55.096H158.911C158.613 54.0293 158.026 53.1867 157.151 52.568C156.298 51.9493 155.231 51.64 153.951 51.64C152.287 51.64 150.943 52.216 149.919 53.368C148.895 54.4987 148.383 56.1093 148.383 58.2C148.383 60.312 148.895 61.944 149.919 63.096C150.943 64.248 152.287 64.824 153.951 64.824C155.231 64.824 156.298 64.5253 157.151 63.928C158.005 63.3307 158.591 62.4773 158.911 61.368H162.047C161.578 63.16 160.639 64.6 159.231 65.688C157.823 66.7547 156.063 67.288 153.951 67.288C152.287 67.288 150.805 66.9147 149.503 66.168C148.223 65.4213 147.221 64.3653 146.495 63C145.77 61.6347 145.407 60.0347 145.407 58.2Z" fill="black"/>
<path d="M181.485 49.464V67H178.573V64.408C178.018 65.304 177.239 66.008 176.237 66.52C175.255 67.0107 174.167 67.256 172.973 67.256C171.607 67.256 170.381 66.9787 169.293 66.424C168.205 65.848 167.341 64.9947 166.701 63.864C166.082 62.7333 165.773 61.3573 165.773 59.736V49.464H168.653V59.352C168.653 61.08 169.09 62.4133 169.965 63.352C170.839 64.2693 172.034 64.728 173.549 64.728C175.106 64.728 176.333 64.248 177.229 63.288C178.125 62.328 178.573 60.9307 178.573 59.096V49.464H181.485Z" fill="black"/>
<path d="M202.402 57.56C202.402 58.1147 202.37 58.7013 202.306 59.32H188.29C188.396 61.048 188.983 62.4027 190.05 63.384C191.138 64.344 192.45 64.824 193.986 64.824C195.244 64.824 196.29 64.536 197.122 63.96C197.975 63.3627 198.572 62.5733 198.914 61.592H202.05C201.58 63.2773 200.642 64.6533 199.234 65.72C197.826 66.7653 196.076 67.288 193.986 67.288C192.322 67.288 190.828 66.9147 189.506 66.168C188.204 65.4213 187.18 64.3653 186.434 63C185.687 61.6133 185.314 60.0133 185.314 58.2C185.314 56.3867 185.676 54.7973 186.402 53.432C187.127 52.0667 188.14 51.0213 189.442 50.296C190.764 49.5493 192.279 49.176 193.986 49.176C195.65 49.176 197.122 49.5387 198.402 50.264C199.682 50.9893 200.663 51.992 201.346 53.272C202.05 54.5307 202.402 55.96 202.402 57.56ZM199.394 56.952C199.394 55.8427 199.148 54.8933 198.658 54.104C198.167 53.2933 197.495 52.6853 196.642 52.28C195.81 51.8533 194.882 51.64 193.858 51.64C192.386 51.64 191.127 52.1093 190.082 53.048C189.058 53.9867 188.471 55.288 188.322 56.952H199.394Z" fill="black"/>
<path d="M50.7907 13.4671C50.4937 11.9986 49.4624 10.9344 48.4889 11.0746C47.5154 11.2314 46.9627 12.5349 47.2679 13.9951C47.5732 15.4636 48.6127 16.5279 49.5779 16.3794C50.5514 16.2309 51.0877 14.9274 50.7907 13.4671Z" fill="black"/>
<path d="M55.6252 13.9951C55.9139 12.5349 55.3694 11.2314 54.3877 11.0746C53.4224 10.9344 52.3912 11.9986 52.0942 13.4671C51.7889 14.9274 52.3252 16.2309 53.3069 16.3794C54.2804 16.5279 55.3117 15.4636 55.6252 13.9951Z" fill="black"/>
<path d="M46.9627 16.4784C46.2944 15.1996 45.0157 14.4654 44.0752 14.8696C43.1677 15.2656 42.9367 16.6434 43.5884 17.9386C44.2402 19.2339 45.5107 19.9599 46.4429 19.5556C47.3752 19.1514 47.5897 17.7819 46.9627 16.4784Z" fill="black"/>
<path d="M59.4119 17.9386C60.0637 16.6434 59.8327 15.2656 58.9252 14.8696C57.9847 14.4654 56.7059 15.1996 56.0377 16.4784C55.4107 17.7819 55.6252 19.1514 56.5574 19.5556C57.4897 19.9599 58.7602 19.2339 59.4119 17.9386Z" fill="black"/>
<path d="M56.2769 25.7184C56.9864 25.3966 57.5804 24.5386 57.5474 23.7631C57.5058 22.7946 56.7025 22.0828 55.9141 21.3843C55.6078 21.113 55.3039 20.8437 55.0477 20.5621C54.7302 20.2211 54.4321 19.8023 54.1299 19.3777C53.3723 18.3131 52.589 17.2126 51.4094 17.2126C50.2629 17.2126 49.5148 18.2576 48.7777 19.2871C48.4487 19.7467 48.1219 20.2031 47.7629 20.5621C47.495 20.8376 47.1706 21.0906 46.8451 21.3445C46.1083 21.9192 45.3662 22.498 45.2632 23.3506C45.1559 24.2416 45.7252 25.3141 46.5502 25.7184C47.4146 26.1555 48.3903 25.8148 49.3847 25.4675C50.0606 25.2314 50.7451 24.9924 51.4094 24.9924C52.0784 24.9924 52.7651 25.2252 53.444 25.4554C54.4313 25.7901 55.4019 26.1192 56.2769 25.7184Z" fill="black"/>
<path fill-rule="evenodd" clip-rule="evenodd" d="M51.5001 0.75C41.697 0.75 33.7501 8.69695 33.7501 18.5C33.7501 28.3031 41.697 36.25 51.5001 36.25C61.3031 36.25 69.2501 28.3031 69.2501 18.5C69.2501 8.69695 61.3031 0.75 51.5001 0.75ZM36.2501 18.5C36.2501 10.0777 43.0777 3.25 51.5001 3.25C59.9224 3.25 66.7501 10.0777 66.7501 18.5C66.7501 26.9223 59.9224 33.75 51.5001 33.75C43.0777 33.75 36.2501 26.9223 36.2501 18.5Z" fill="black"/>
</svg>
